{"title":"Dawn Of The Planet Of The Apes 2014 720p TS HC ENG XviD-INFERNO","uid":11194531,"size":2437523261,"categoryP":"video","categoryS":"movies","magnet":"?xt=urn:btih:6232f90f95954a31d5fe9e60fa412785baaf3eb2&amp;dn=Dawn+Of+The+Planet+Of+The+Apes+2014+720p+TS+HC+ENG+XviD-INFERNO&amp;tr=udp%3A%2F%2Ftracker.openbittorrent.com%3A80&amp;tr=udp%3A%2F%2Fopen.demonii.com%3A1337&amp;tr=udp%3A%2F%2Ftracker.coppersurfer.tk%3A6969&amp;tr=udp%3A%2F%2Fexodus.desync.com%3A6969","seeders":7,"leechers":1,"uploader":"TvTeam","files":4,"time":1413062064,"description":" &lt;a href=&quot;http://www.torrenting.com&quot; rel=&quot;nofollow&quot; target=&quot;_NEW&quot;&gt;http://www.torrenting.com&lt;/a&gt;\n\nSign up is OPEN - for time being. Come and have fun.\n\n\n....[IMG]http://lookpic.com/O/i2/567/PD6CJxRE.jpeg[/IMG]\n\n[IMG]http://lookpic.com/O/i2/987/OoSZjpNd.jpeg[/IMG]\n\nSource: JYK ...THANKS\n &lt;a href=&quot;\nhttp://www.imdb.com/title/tt2103281/&quot; rel=&quot;nofollow&quot; target=&quot;_NEW&quot;&gt;\nhttp://www.imdb.com/title/tt2103281/&lt;/a&gt;\n\nFormat                                   : AVI\nFormat/Info                              : Audio Video Interleave\nFormat profile                           : OpenDML\nFile size                                : 2.23 GiB\nDuration                                 : 1h 59mn\nOverall bit rate                         : 2 671 Kbps\nWriting library                          : VirtualDub build 35491/release\n\nVideo\nID                                       : 0\nFormat                                   : MPEG-4 Visual\nFormat profile                           : Advanced Simple@L5\nFormat settings, BVOP                    : 2\nFormat settings, QPel                    : No\nFormat settings, GMC                     : No warppoints\nFormat settings, Matrix                  : Default (H.263)\nMuxing mode                              : Packed bitstream\nCodec ID                                 : XVID\nCodec ID/Hint                            : XviD\nDuration                                 : 1h 59mn\nBit rate                                 : 2 499 Kbps\nWidth                                    : 1 280 pixels\nHeight                                   : 630 pixels\nDisplay aspect ratio                     : 2.032\nFrame rate                               : 25.000 fps\nColor space                              : YUV\nChroma subsampling                       : 4:2:0\nBit depth                                : 8 bits\nScan type                                : Progressive\nCompression mode                         : Lossy\nBits/(Pixel*Frame)                       : 0.124\nStream size                              : 2.09 GiB (94%)\nWriting library                          : XviD 64\n\nAudio\nID                                       : 1\nFormat                                   : MPEG Audio\nFormat version                           : Version 1\nFormat profile                           : Layer 3\nMode                                     : Joint stereo\nCodec ID                                 : 55\nCodec ID/Hint                            : MP3\nDuration                                 : 1h 59mn\nBit rate mode                            : Constant\nBit rate                                 : 160 Kbps\nChannel count                            : 2 channels\nSampling rate                            : 44.1 KHz\nCompression mode                         : Lossy\nStream size                              : 137 MiB (6%)\nAlignment                                : Split accross interleaves\nInterleave, duration                     : 40 ms (1.00 video frame)\nInterleave, preload duration             : 500 ms\n\nWorkdone:\nVideo source was really good for a cam, We first cropped off bottom line of foreign subs. Then fix the perspective, adjusted levels, MSU Denoiser, Saturation, and added English subs.\n\nAudio:\nClean the noise out and added a few enhancements\n\n[IMG]http://lookpic.com/O/i2/1486/ccItye0N.jpeg[/IMG]\n\n[IMG]http://lookpic.com/O/i2/1178/kQpXV0Qx.png[/IMG]\n[IMG]http://lookpic.com/O/i2/1744/XZ95NYjU.png[/IMG]\n[IMG]http://lookpic.com/O/i2/1019/NzsMniju.png[/IMG]\n[IMG]http://lookpic.com/O/i2/1434/RvtfrahC.png[/IMG]\n[IMG]http://lookpic.com/O/i2/833/PmkkG5db.png[/IMG]\n[IMG]http://lookpic.com/O/i2/92/kIrQlR8X.png[/IMG]\n[IMG]http://lookpic.com/O/i2/1249/MjaE7ZD1.png[/IMG]\n[IMG]http://lookpic.com/O/i2/1819/g6pZNKhS.png[/IMG]\n[IMG]http://lookpic.com/O/i2/1719/iZtIDGSN.png[/IMG]\n[IMG]http://lookpic.com/O/i2/48/MRcP1L7H.png[/IMG]\n\nGreets go out too:\n\nTHC, VAIN, Justice, UNiQUE, Hive, CM8, BHRG, and MiLLENiUM \n\n[IMG]http://www.myimg.us/images/02.20.12/24265.gif[/IMG]","torrent":{"xt":"urn:btih:6232f90f95954a31d5fe9e60fa412785baaf3eb2","amp;dn":"Dawn+Of+The+Planet+Of+The+Apes+2014+720p+TS+HC+ENG+XviD-INFERNO","amp;tr":["udp%3A%2F%2Ftracker.openbittorrent.com%3A80","udp%3A%2F%2Fopen.demonii.com%3A1337","udp%3A%2F%2Ftracker.coppersurfer.tk%3A6969","udp%3A%2F%2Fexodus.desync.com%3A6969"],"infoHash":"6232f90f95954a31d5fe9e60fa412785baaf3eb2","infoHashBuffer":{"type":"Buffer","data":[98,50,249,15,149,149,74,49,213,254,158,96,250,65,39,133,186,175,62,178]},"announce":[],"urlList":[]}}